#!OML:ASF H:\Terrain\Patient Classification 1\Walking\liu\liu.ASF
:FULLY-SPECIFIED
:DEGREES
63
root 8.88139 16.1822 -22.1029 7.67458 -3.85237 2.53007
lowerback -2.19425 0.761363 -4.69163
upperback -0.340471 1.11932 0.68015
thorax 0.777043 0.547212 3.36224
lowerneck -18.968 -4.59649 -13.6303
upperneck 16.1458 -5.77102 15.8609
head 9.08434 -1.96118 7.04564
rclavicle 7.60351e-015 9.93923e-015
rhumerus -41.626 13.0028 -88.2589
rradius 38.9711
rwrist -22.0455
rhand -33.6996 -30.0994
rfingers 7.12502
rthumb -6.88959 -59.9673
lclavicle 7.60351e-015 9.93923e-015
lhumerus -37.8983 -0.664008 84.7988
lradius 22.6853
lwrist 0.180905
lhand -13.555 -25.9187
lfingers 7.12502
lthumb 12.5582 3.68389
rfemur -15.5487 -1.65327 16.4129
rtibia 71.6466
rfoot -1.66965 -9.85948
rtoes -8.3624
lfemur -29.641 7.26611 -27.3039
ltibia 36.8712
lfoot -14.9082 4.43847
ltoes -1.99566
64
root 8.89766 16.222 -21.9231 7.75377 -3.6013 2.29304
lowerback -2.30409 0.587842 -4.39309
upperback -0.349107 0.88535 0.739684
thorax 0.855077 0.429238 3.25131
lowerneck -18.5927 -4.39543 -13.2562
upperneck 15.9067 -5.5659 15.6364
head 8.88125 -1.879 6.91328
rclavicle 1.02871e-014 -7.15625e-015
rhumerus -42.0027 12.6956 -88.1614
rradius 38.0512
rwrist -21.3809
rhand -32.9132 -28.6066
rfingers 7.12502
rthumb -6.13043 -58.4979
lclavicle 1.02871e-014 -7.15625e-015
lhumerus -36.9997 -1.57336 85.0552
lradius 23.2828
lwrist 0.69731
lhand -13.3491 -25.6503
lfingers 7.12502
lthumb 12.7566 3.93997
rfemur -17.289 -1.39563 17.047
rtibia 72.0689
rfoot -3.33899 -9.55396
rtoes -11.6517
lfemur -28.5997 7.09103 -27.0676
ltibia 36.1517
lfoot -15.2596 4.45743
ltoes -0.729011
65
root 8.91149 16.2605 -21.7408 7.6741 -3.35782 2.18857
lowerback -2.31354 0.465967 -4.22209
upperback -0.268844 0.7197 0.81172
thorax 0.958811 0.343035 3.22553
lowerneck -18.5886 -4.38194 -13.2502
upperneck 15.9328 -5.54392 15.5981
head 8.88401 -1.87204 6.90207
rclavicle 8.24956e-015 0
rhumerus -42.3785 12.4103 -87.8738
rradius 37.2958
rwrist -20.5604
rhand -31.7046 -26.5563
rfingers 7.12502
rthumb -4.96347 -56.4781
lclavicle 8.24956e-015 0
lhumerus -35.804 -2.44089 85.4541
lradius 23.5729
lwrist 0.936982
lhand -13.3565 -25.902
lfingers 7.12502
lthumb 12.7495 3.68877
rfemur -18.8318 -1.18972 17.5018
rtibia 72.2889
rfoot -4.73992 -9.43566
rtoes -12.5865
lfemur -27.3411 6.80472 -26.9193
ltibia 35.4734
lfoot -15.3427 4.64136
ltoes -1.9264
66
root 8.92375 16.2923 -21.5576 7.40963 -2.87052 2.50804
lowerback -2.17244 0.15128 -4.50088
upperback -0.0957651 0.302965 0.87113
thorax 1.0923 0.127001 3.43152
lowerneck -19.2112 -4.37851 -13.3226
upperneck 16.4819 -5.45665 15.3779
head 9.1627 -1.83068 6.87056
rclavicle 7.45443e-016 1.19271e-014
rhumerus -42.5507 12.3561 -87.5717
rradius 36.6174
rwrist -19.9546
rhand -30.0143 -26.8464
rfingers 7.12502
rthumb -3.33129 -56.8001
lclavicle 7.45443e-016 1.19271e-014
lhumerus -34.5369 -2.98796 85.8427
lradius 23.8068
lwrist 1.26358
lhand -13.4361 -26.1019
lfingers 7.12502
lthumb 12.6728 3.49356
rfemur -20.1071 -1.28854 17.4911
rtibia 72.3775
rfoot -6.44268 -9.42178
rtoes -11.1086
lfemur -25.9419 6.27735 -27.184
ltibia 34.8821
lfoot -15.6788 4.85694
ltoes -4.47646
67
root 8.93195 16.3181 -21.3797 7.33873 -2.48972 2.4784
lowerback -2.22952 -0.148661 -4.42841
upperback 0.0198379 -0.0951591 0.94998
thorax 1.28026 -0.078586 3.46003
lowerneck -19.7749 -4.31759 -13.1306
upperneck 17.1518 -5.3434 14.9775
head 9.45658 -1.78183 6.73413
rclavicle 4.87022e-015 -2.78299e-015
rhumerus -42.7229 12.4096 -87.5447
rradius 35.9011
rwrist -19.5012
rhand -28.2545 -30.9225
rfingers 7.12502
rthumb -1.63174 -60.896
lclavicle 4.87022e-015 -2.78299e-015
lhumerus -33.39 -3.68313 86.0486
lradius 24.1869
lwrist 1.7702
lhand -13.5535 -25.8062
lfingers 7.12502
lthumb 12.5596 3.79629
rfemur -21.5939 -1.14334 17.8762
rtibia 72.2922
rfoot -7.92235 -9.4397
rtoes -10.042
lfemur -24.8422 5.8096 -27.0579
ltibia 34.2994
lfoot -16.0694 5.03341
ltoes -4.87576
68
root 8.93508 16.3295 -21.2159 7.30666 -2.2263 2.26526
lowerback -2.10078 -0.319066 -4.27656
upperback 0.0296732 -0.333655 1.08457
thorax 1.24016 -0.196561 3.50591
lowerneck -19.8153 -4.17261 -12.8286
upperneck 17.3899 -5.13796 14.481
head 9.48726 -1.71447 6.53473
rclavicle -4.87022e-015 -7.95139e-015
rhumerus -43.2125 12.5574 -87.5868
rradius 35.4021
rwrist -19.196
rhand -27.2144 -33.0162
rfingers 7.12502
rthumb -0.627125 -62.995
lclavicle -4.87022e-015 -7.95139e-015
lhumerus -32.4511 -4.82837 86.3498
lradius 24.8245
lwrist 2.35439
lhand -13.8347 -25.2513
lfingers 7.12502
lthumb 12.2885 4.36764
rfemur -23.2736 -0.914462 18.4616
rtibia 72.0806
rfoot -8.70555 -9.41846
rtoes -10.8684
lfemur -23.8854 5.60266 -26.7499
ltibia 33.7354
lfoot -16.4115 5.0545
ltoes -3.83281
69
root 8.94223 16.3558 -21.0468 7.22711 -1.93419 2.28906
lowerback -1.85683 -0.490338 -4.33312
upperback 0.0413934 -0.571913 1.13438
thorax 1.1385 -0.314064 3.58311
lowerneck -20.0609 -4.04357 -12.4509
upperneck 17.6257 -4.95798 14.0039
head 9.55999 -1.64516 6.32747
rclavicle 4.96962e-016 -1.19271e-015
rhumerus -43.7431 12.7236 -87.6652
rradius 34.9975
rwrist -18.9658
rhand -27.2841 -32.1594
rfingers 7.12502
rthumb -0.694454 -62.1381
lclavicle 4.96962e-016 -1.19271e-015
lhumerus -31.5478 -5.99887 86.5694
lradius 25.5778
lwrist 2.88136
lhand -14.0394 -24.6068
lfingers 7.12502
lthumb 12.0911 5.02384
rfemur -24.7969 -0.872166 18.7271
rtibia 71.6303
rfoot -9.61266 -9.23837
rtoes -12.9214
lfemur -22.8159 5.53556 -26.7521
ltibia 33.1802
lfoot -16.8036 4.932
ltoes -3.06338
70
root 8.95395 16.3712 -20.8674 7.27819 -1.66209 2.51271
lowerback -1.96258 -0.676653 -4.47806
upperback 0.125585 -0.81012 1.05766
thorax 1.30798 -0.439495 3.57662
lowerneck -20.1201 -3.97813 -12.427
upperneck 17.5528 -4.88234 14.1026
head 9.53661 -1.59609 6.36882
rclavicle 8.05078e-015 1.70955e-014
rhumerus -44.0449 12.8019 -87.7681
rradius 34.7132
rwrist -18.887
rhand -27.5425 -32.4921
rfingers 7.12502
rthumb -0.944043 -62.4697
lclavicle 8.05078e-015 1.70955e-014
lhumerus -30.3313 -7.02024 86.6099
lradius 25.9109
lwrist 3.21884
lhand -14.0618 -24.8213
lfingers 7.12502
lthumb 12.0695 4.81067
rfemur -26.3907 -0.789716 18.69
rtibia 71.1147
rfoot -10.8565 -9.17873
rtoes -14.3003
lfemur -21.8882 5.29446 -27.0095
ltibia 32.6754
lfoot -17.0801 5.06264
ltoes -3.04936
71
root 8.96831 16.3724 -20.6871 7.26298 -1.42473 2.73932
lowerback -2.09009 -0.821389 -4.63528
upperback 0.234208 -0.991527 1.06066
thorax 1.51168 -0.5385 3.6598
lowerneck -19.6821 -3.92217 -12.9482
upperneck 17.1568 -4.76733 14.5951
head 9.33019 -1.54343 6.64143
rclavicle -3.67752e-015 9.54166e-015
rhumerus -44.3954 12.9195 -87.6715
rradius 34.7393
rwrist -18.8286
rhand -28.601 -33.0663
rfingers 7.12502
rthumb -1.96632 -63.037
lclavicle -3.67752e-015 9.54166e-015
lhumerus -29.2232 -8.23286 86.8088
lradius 26.3912
lwrist 3.6494
lhand -13.841 -25.66
lfingers 7.12502
lthumb 12.2824 3.95932
rfemur -27.9339 -0.590797 18.5851
rtibia 70.4706
rfoot -11.7214 -9.51126
rtoes -15.1088
lfemur -20.8941 5.10635 -27.2778
ltibia 32.0931
lfoot -17.0862 5.30009
ltoes -4.63528
72
root 8.98022 16.3727 -20.5101 7.12142 -1.20506 2.78576
lowerback -1.99715 -0.978986 -4.65275
upperback 0.31018 -1.2051 1.10294
thorax 1.56009 -0.64836 3.70615
lowerneck -19.8274 -3.77756 -12.8048
upperneck 17.3476 -4.57522 14.4426
head 9.38357 -1.45427 6.5958
rclavicle -2.65874e-014 7.95139e-016
rhumerus -44.7959 12.8339 -87.5362
rradius 34.6039
rwrist -18.2023
rhand -30.1995 -30.9693
rfingers 7.12502
rthumb -3.51009 -60.9201
lclavicle -2.65874e-014 7.95139e-016
lhumerus -28.3188 -9.32466 86.8438
lradius 27.1387
lwrist 4.11915
lhand -13.4781 -26.0044
lfingers 7.12502
lthumb 12.6323 3.59357
rfemur -29.2705 -0.351352 18.6403
rtibia 69.6015
rfoot -12.5816 -9.82953
rtoes -14.3622
lfemur -19.6726 4.99112 -27.2887
ltibia 31.4633
lfoot -17.1741 5.20263
ltoes -5.74587
73
root 8.98353 16.3744 -20.3349 7.09602 -0.91795 2.91832
lowerback -2.00489 -1.22141 -4.83274
upperback 0.382114 -1.52234 1.10537
thorax 1.67511 -0.812999 3.79699
lowerneck -20.2136 -3.56862 -12.1721
upperneck 17.5958 -4.30608 13.7822
head 9.46472 -1.34061 6.29067
rclavicle -5.96354e-016 -3.97569e-016
rhumerus -45.0419 12.7668 -87.4798
rradius 34.1155
rwrist -17.5559
rhand -29.8152 -28.9542
rfingers 7.12502
rthumb -3.139 -58.9108
lclavicle -5.96354e-016 -3.97569e-016
lhumerus -27.3249 -9.95021 86.6242
lradius 27.7964
lwrist 4.59417
lhand -13.2795 -26.1161
lfingers 7.12502
lthumb 12.8238 3.46996
rfemur -30.6505 -0.208134 18.614
rtibia 68.5903
rfoot -13.6188 -9.9345
rtoes -13.5008
lfemur -18.5366 4.61663 -27.3536
ltibia 30.8129
lfoot -17.4962 5.14374
ltoes -4.96767
74
root 8.986 16.372 -20.1577 7.0214 -0.612261 3.14585
lowerback -1.97765 -1.40076 -5.02718
upperback 0.440801 -1.75683 1.09976
thorax 1.75035 -0.935316 3.89109
lowerneck -19.942 -3.5189 -12.2706
upperneck 17.3029 -4.15791 13.5577
head 9.2878 -1.31116 6.23143
rclavicle -3.73715e-014 1.63003e-014
rhumerus -45.4916 12.7548 -87.3223
rradius 33.8674
rwrist -17.3716
rhand -29.789 -27.9653
rfingers 7.12502
rthumb -3.11372 -57.9223
lclavicle -3.73715e-014 1.63003e-014
lhumerus -26.546 -11.1573 86.6759
lradius 28.6315
lwrist 5.58159
lhand -13.4747 -26.0948
lfingers 7.12502
lthumb 12.6355 3.50299
rfemur -31.9401 -0.16477 18.4848
rtibia 67.4557
rfoot -14.185 -10.1154
rtoes -13.4529
lfemur -17.3737 4.33212 -27.5559
ltibia 30.109
lfoot -17.907 5.31972
ltoes -4.8964
